<svg xmlns="http://www.w3.org/2000/svg" version="1.1" width="1024" height="768">
<rect x="0" y="0" width="1024" height="768" fill="#98a8a7" />
<g transform="scale(4.000000) translate(0.5 0.5)">
<rect fill="#394a25" fill-opacity="0.501961" x="0" y="65" width="256" height="62" />
<rect fill="#ffffff" fill-opacity="0.501961" x="57" y="0" width="199" height="61" />
<rect fill="#f5fbff" fill-opacity="0.501961" x="67" y="132" width="161" height="32" />
<rect fill="#445b44" fill-opacity="0.501961" x="0" y="52" width="69" height="88" />
<rect fill="#f7fcff" fill-opacity="0.501961" x="0" y="22" width="221" height="27" />
<rect fill="#dbca7f" fill-opacity="0.501961" x="0" y="91" width="105" height="15" />
<rect fill="#9ea098" fill-opacity="0.501961" x="91" y="62" width="71" height="67" />
<rect fill="#284130" fill-opacity="0.501961" x="174" y="77" width="82" height="32" />
<rect fill="#c3d4df" fill-opacity="0.501961" x="197" y="119" width="59" height="24" />
<rect fill="#00150c" fill-opacity="0.501961" x="45" y="64" width="31" height="26" />
<rect fill="#265463" fill-opacity="0.501961" x="121" y="177" width="53" height="15" />
<rect fill="#568093" fill-opacity="0.501961" x="21" y="157" width="66" height="35" />
<rect fill="#cedcea" fill-opacity="0.501961" x="197" y="45" width="59" height="27" />
<rect fill="#5e84a3" fill-opacity="0.501961" x="121" y="0" width="50" height="14" />
<rect fill="#e2e7f2" fill-opacity="0.501961" x="147" y="130" width="62" height="42" />
<rect fill="#a6bfdc" fill-opacity="0.501961" x="0" y="0" width="96" height="33" />
<rect fill="#133223" fill-opacity="0.501961" x="45" y="107" width="31" height="25" />
<rect fill="#ffffff" fill-opacity="0.501961" x="110" y="27" width="94" height="30" />
<rect fill="#c2d4e2" fill-opacity="0.501961" x="0" y="146" width="70" height="16" />
<rect fill="#cdd5e2" fill-opacity="0.501961" x="126" y="116" width="30" height="39" />
</g>
</svg>