<svg xmlns="http://www.w3.org/2000/svg" version="1.1" width="1024" height="768">
<rect x="0" y="0" width="1024" height="768" fill="#98a8a6" />
<g transform="scale(4.000000) translate(0.5 0.5)">
<polygon fill="#33441f" fill-opacity="0.501961" points="3,145 -16,46 271,89" />
<polygon fill="#ffffff" fill-opacity="0.501961" points="249,-16 266,70 -16,40" />
<polygon fill="#f6fbff" fill-opacity="0.501961" points="211,178 235,125 33,142" />
<polygon fill="#1d3a1c" fill-opacity="0.501961" points="271,99 171,56 172,131" />
<polygon fill="#eef5ff" fill-opacity="0.501961" points="54,-16 70,64 266,50" />
<polygon fill="#000c00" fill-opacity="0.501961" points="33,88 94,89 59,59" />
<polygon fill="#c1b287" fill-opacity="0.501961" points="14,91 132,122 160,88" />
<polygon fill="#385439" fill-opacity="0.501961" points="256,121 151,67 271,75" />
<polygon fill="#3c6b7a" fill-opacity="0.501961" points="-15,186 55,157 71,207" />
<polygon fill="#e6f3ff" fill-opacity="0.501961" points="-16,36 16,-1 53,44" />
<polygon fill="#002115" fill-opacity="0.501961" points="38,106 93,106 55,132" />
<polygon fill="#255361" fill-opacity="0.501961" points="124,173 195,190 117,198" />
<polygon fill="#92a3a2" fill-opacity="0.501961" points="188,60 55,56 104,92" />
<polygon fill="#fefeff" fill-opacity="0.501961" points="223,-3 82,53 210,48" />
<polygon fill="#9bb2c9" fill-opacity="0.501961" points="130,32 35,29 208,-13" />
<polygon fill="#576e52" fill-opacity="0.501961" points="165,63 156,125 271,113" />
<polygon fill="#b2c5d1" fill-opacity="0.501961" points="9,173 -16,145 113,130" />
<polygon fill="#f2f5fd" fill-opacity="0.501961" points="130,48 77,5 115,-16" />
<polygon fill="#e4e9f0" fill-opacity="0.501961" points="200,166 67,132 181,128" />
<polygon fill="#a0b4cb" fill-opacity="0.501961" points="271,3 243,81 221,-10" />
<polygon fill="#a9bbcb" fill-opacity="0.501961" points="206,126 203,195 271,116" />
<polygon fill="#ffffff" fill-opacity="0.501961" points="146,71 162,77 131,75" />
<polygon fill="#b0ad5d" fill-opacity="0.501961" points="-16,83 63,104 -2,108" />
<polygon fill="#618193" fill-opacity="0.501961" points="271,185 214,203 240,143" />
<polygon fill="#7c846f" fill-opacity="0.501961" points="102,136 111,95 194,93" />
<polygon fill="#a3b5b9" fill-opacity="0.501961" points="102,128 41,152 104,102" />
<polygon fill="#688186" fill-opacity="0.501961" points="-16,144 67,142 40,120" />
<polygon fill="#becdda" fill-opacity="0.501961" points="80,199 139,106 112,196" />
<polygon fill="#2c574a" fill-opacity="0.501961" points="14,91 77,63 -10,66" />
<polygon fill="#6c8799" fill-opacity="0.501961" points="42,74 -7,54 66,43" />
<polygon fill="#2c3c39" fill-opacity="0.501961" points="254,107 264,80 162,88" />
<polygon fill="#5e8057" fill-opacity="0.501961" points="221,60 198,71 218,133" />
<polygon fill="#7592a0" fill-opacity="0.501961" points="176,166 120,176 214,195" />
<polygon fill="#94b2cc" fill-opacity="0.501961" points="47,-16 -16,11 98,33" />
<polygon fill="#4f7257" fill-opacity="0.501961" points="134,69 104,83 107,55" />
<polygon fill="#d7c9b0" fill-opacity="0.501961" points="87,96 135,93 104,85" />
<polygon fill="#658ba0" fill-opacity="0.501961" points="125,166 25,155 51,178" />
<polygon fill="#092a23" fill-opacity="0.501961" points="51,65 40,90 92,89" />
<polygon fill="#7a9ab0" fill-opacity="0.501961" points="198,-3 119,-16 121,15" />
<polygon fill="#47554e" fill-opacity="0.501961" points="173,102 178,119 118,106" />
<polygon fill="#f9f0ff" fill-opacity="0.501961" points="129,117 146,121 160,115" />
<polygon fill="#b4a796" fill-opacity="0.501961" points="199,102 196,91 183,96" />
<polygon fill="#f7f9fe" fill-opacity="0.501961" points="181,59 149,61 219,-10" />
<polygon fill="#cad5da" fill-opacity="0.501961" points="97,129 13,152 155,155" />
<polygon fill="#e9ecf5" fill-opacity="0.501961" points="202,121 202,156 155,164" />
<polygon fill="#355338" fill-opacity="0.501961" points="18,129 -15,121 21,106" />
<polygon fill="#cb9399" fill-opacity="0.501961" points="120,83 139,84 131,66" />
<polygon fill="#abb376" fill-opacity="0.501961" points="156,104 132,92 194,95" />
<polygon fill="#d6dfe8" fill-opacity="0.501961" points="99,51 -16,9 -3,44" />
<polygon fill="#758c71" fill-opacity="0.501961" points="188,132 169,133 184,110" />
<polygon fill="#cdc18b" fill-opacity="0.501961" points="29,85 42,96 11,93" />
<polygon fill="#03111f" fill-opacity="0.501961" points="218,96 224,81 224,112" />
<polygon fill="#25173d" fill-opacity="0.501961" points="116,91 139,87 125,83" />
<polygon fill="#414844" fill-opacity="0.501961" points="142,77 146,92 172,81" />
<polygon fill="#b2bfc9" fill-opacity="0.501961" points="249,108 174,177 217,189" />
<polygon fill="#68806e" fill-opacity="0.501961" points="113,132 64,111 135,116" />
<polygon fill="#9bc177" fill-opacity="0.501961" points="191,89 213,79 198,79" />
<polygon fill="#021c1a" fill-opacity="0.501961" points="178,94 196,70 192,90" />
<polygon fill="#edf1f8" fill-opacity="0.501961" points="65,62 186,23 111,26" />
<polygon fill="#c3c9bf" fill-opacity="0.501961" points="88,75 105,80 90,86" />
<polygon fill="#6a8457" fill-opacity="0.501961" points="230,87 271,70 248,67" />
<polygon fill="#9ab1bf" fill-opacity="0.501961" points="90,182 81,149 164,168" />
<polygon fill="#6c817c" fill-opacity="0.501961" points="67,132 63,146 40,137" />
<polygon fill="#54765e" fill-opacity="0.501961" points="68,93 76,72 98,70" />
<polygon fill="#afa2a8" fill-opacity="0.501961" points="144,141 139,118 108,99" />
<polygon fill="#d8e0ea" fill-opacity="0.501961" points="221,16 191,56 201,73" />
<polygon fill="#7599b9" fill-opacity="0.501961" points="35,31 44,-16 55,30" />
<polygon fill="#a9bdcc" fill-opacity="0.501961" points="149,7 172,25 199,-5" />
<polygon fill="#a9ae69" fill-opacity="0.501961" points="39,104 120,102 69,88" />
<polygon fill="#92a4b2" fill-opacity="0.501961" points="-16,58 42,45 -12,42" />
<polygon fill="#1a3433" fill-opacity="0.501961" points="192,101 180,100 196,121" />
<polygon fill="#4e646c" fill-opacity="0.501961" points="264,185 226,207 227,185" />
<polygon fill="#c2c5cc" fill-opacity="0.501961" points="98,103 91,114 120,103" />
<polygon fill="#7f9e6a" fill-opacity="0.501961" points="191,64 188,85 178,78" />
<polygon fill="#2c4637" fill-opacity="0.501961" points="73,130 36,108 82,105" />
<polygon fill="#466c78" fill-opacity="0.501961" points="28,207 56,172 45,158" />
<polygon fill="#2b5738" fill-opacity="0.501961" points="49,74 77,74 72,61" />
<polygon fill="#5b7837" fill-opacity="0.501961" points="49,96 -1,97 25,104" />
<polygon fill="#65803e" fill-opacity="0.501961" points="152,96 105,94 125,103" />
<polygon fill="#496a70" fill-opacity="0.501961" points="159,204 173,174 122,190" />
<polygon fill="#dfe5fd" fill-opacity="0.501961" points="128,71 151,71 151,78" />
<polygon fill="#537076" fill-opacity="0.501961" points="24,85 22,43 44,84" />
<polygon fill="#819ba4" fill-opacity="0.501961" points="-1,173 17,192 52,155" />
<polygon fill="#6f8584" fill-opacity="0.501961" points="53,49 12,53 71,63" />
<polygon fill="#d3dde2" fill-opacity="0.501961" points="8,147 26,157 -16,156" />
<polygon fill="#1e3b2d" fill-opacity="0.501961" points="183,67 209,76 195,81" />
<polygon fill="#89a18e" fill-opacity="0.501961" points="228,62 186,65 246,78" />
<polygon fill="#c4d0df" fill-opacity="0.501961" points="247,73 219,-12 217,60" />
<polygon fill="#1a2f2c" fill-opacity="0.501961" points="247,112 267,67 247,86" />
<polygon fill="#4f674a" fill-opacity="0.501961" points="162,103 181,98 167,131" />
<polygon fill="#6e8e64" fill-opacity="0.501961" points="223,117 184,96 219,131" />
<polygon fill="#372740" fill-opacity="0.501961" points="135,105 117,103 123,109" />
<polygon fill="#36532b" fill-opacity="0.501961" points="8,90 15,59 22,90" />
<polygon fill="#52685c" fill-opacity="0.501961" points="271,105 247,114 216,92" />
<polygon fill="#b9c7d4" fill-opacity="0.501961" points="53,29 147,8 96,35" />
<polygon fill="#8da5b4" fill-opacity="0.501961" points="219,145 218,176 267,139" />
<polygon fill="#bbcad3" fill-opacity="0.501961" points="195,134 267,123 266,142" />
<polygon fill="#412d34" fill-opacity="0.501961" points="136,79 127,72 146,80" />
<polygon fill="#e9ecf3" fill-opacity="0.501961" points="198,154 157,160 158,124" />
<polygon fill="#7c95a7" fill-opacity="0.501961" points="140,73 125,68 142,50" />
</g>
</svg>