<svg xmlns="http://www.w3.org/2000/svg" version="1.1" width="1024" height="768">
<rect x="0" y="0" width="1024" height="768" fill="#98a8a7" />
<g transform="scale(4.000000) translate(0.5 0.5)">
<polygon fill="#354521" fill-opacity="0.501961" points="-1,47 -9,146 271,90" />
<polygon fill="#ffffff" fill-opacity="0.501961" points="271,70 249,-16 -16,41" />
<polygon fill="#f3f8ff" fill-opacity="0.501961" points="258,123 26,143 204,176" />
<polygon fill="#1f3b1d" fill-opacity="0.501961" points="171,57 171,133 271,96" />
<polygon fill="#f0f7ff" fill-opacity="0.501961" points="262,52 61,-16 66,63" />
<polygon fill="#000e01" fill-opacity="0.501961" points="57,59 34,90 95,88" />
<polygon fill="#b7a98d" fill-opacity="0.501961" points="40,96 158,67 133,121" />
<polygon fill="#304b34" fill-opacity="0.501961" points="187,71 259,75 270,133" />
<polygon fill="#e6f3ff" fill-opacity="0.501961" points="15,-2 -16,38 56,45" />
<polygon fill="#3e6b7c" fill-opacity="0.501961" points="72,207 53,157 -16,186" />
<polygon fill="#22505e" fill-opacity="0.501961" points="122,174 199,191 123,207" />
<polygon fill="#032618" fill-opacity="0.501961" points="90,105 37,108 57,134" />
<polygon fill="#ffffff" fill-opacity="0.501961" points="221,1 211,50 82,48" />
<polygon fill="#e5ebf2" fill-opacity="0.501961" points="207,169 62,134 182,128" />
<polygon fill="#556c50" fill-opacity="0.501961" points="271,112 156,125 165,65" />
<polygon fill="#a4bad4" fill-opacity="0.501961" points="-16,2 76,37 203,4" />
<polygon fill="#b0ad61" fill-opacity="0.501961" points="0,86 -16,114 96,96" />
<polygon fill="#ffffff" fill-opacity="0.501961" points="113,21 125,-16 71,7" />
<polygon fill="#83979a" fill-opacity="0.501961" points="34,47 165,69 109,91" />
<polygon fill="#c5d7e5" fill-opacity="0.501961" points="2,161 74,152 -4,140" />
<polygon fill="#a7b8b1" fill-opacity="0.501961" points="54,146 117,85 100,129" />
<polygon fill="#b0ac7d" fill-opacity="0.501961" points="199,95 135,107 149,91" />
<polygon fill="#a4b6c6" fill-opacity="0.501961" points="213,128 191,207 271,113" />
<polygon fill="#01231b" fill-opacity="0.501961" points="99,90 33,88 60,73" />
<polygon fill="#767a68" fill-opacity="0.501961" points="160,86 107,55 109,138" />
<polygon fill="#a2b5cc" fill-opacity="0.501961" points="271,-2 243,82 221,-6" />
<polygon fill="#648396" fill-opacity="0.501961" points="213,207 271,186 240,141" />
<polygon fill="#2b5446" fill-opacity="0.501961" points="54,73 -16,59 11,91" />
<polygon fill="#e7d3eb" fill-opacity="0.501961" points="133,70 117,79 156,75" />
<polygon fill="#688287" fill-opacity="0.501961" points="67,142 40,118 -16,146" />
<polygon fill="#e7d5c1" fill-opacity="0.501961" points="136,94 92,94 105,85" />
<polygon fill="#6c899d" fill-opacity="0.501961" points="-16,48 41,74 65,47" />
<polygon fill="#617d5b" fill-opacity="0.501961" points="219,132 185,97 219,58" />
<polygon fill="#71909d" fill-opacity="0.501961" points="208,195 175,166 122,176" />
<polygon fill="#43434a" fill-opacity="0.501961" points="117,90 140,76 183,83" />
<polygon fill="#bdceda" fill-opacity="0.501961" points="137,114 112,197 76,200" />
<polygon fill="#2b3c3b" fill-opacity="0.501961" points="260,80 256,109 168,88" />
<polygon fill="#7d9bb2" fill-opacity="0.501961" points="125,17 245,-16 114,-16" />
<polygon fill="#3e5c4e" fill-opacity="0.501961" points="52,107 -4,108 -6,136" />
<polygon fill="#d9c8d3" fill-opacity="0.501961" points="142,125 154,117 115,111" />
<polygon fill="#7295ae" fill-opacity="0.501961" points="110,154 80,179 21,155" />
<polygon fill="#8da9c3" fill-opacity="0.501961" points="97,25 26,33 50,8" />
<polygon fill="#e1e9f1" fill-opacity="0.501961" points="70,61 56,24 135,49" />
<polygon fill="#cbd3dc" fill-opacity="0.501961" points="177,174 201,117 221,189" />
<polygon fill="#adad71" fill-opacity="0.501961" points="129,103 71,88 34,105" />
<polygon fill="#2d5c3b" fill-opacity="0.501961" points="50,61 84,86 73,63" />
<polygon fill="#d7e4dd" fill-opacity="0.501961" points="148,60 176,55 184,64" />
<polygon fill="#e2e9f5" fill-opacity="0.501961" points="-3,52 -7,14 32,25" />
<polygon fill="#261d3d" fill-opacity="0.501961" points="117,107 139,109 133,103" />
<polygon fill="#d0bf98" fill-opacity="0.501961" points="10,95 42,94 30,85" />
<polygon fill="#849c7a" fill-opacity="0.501961" points="242,80 271,65 192,68" />
<polygon fill="#e9edf3" fill-opacity="0.501961" points="161,167 208,148 151,124" />
<polygon fill="#021422" fill-opacity="0.501961" points="219,111 227,107 222,80" />
<polygon fill="#d9dfd2" fill-opacity="0.501961" points="92,76 105,80 92,86" />
<polygon fill="#536e57" fill-opacity="0.501961" points="192,79 151,70 186,59" />
<polygon fill="#84ae6d" fill-opacity="0.501961" points="206,78 193,86 220,88" />
<polygon fill="#cad5e6" fill-opacity="0.501961" points="222,-3 245,73 203,52" />
<polygon fill="#597256" fill-opacity="0.501961" points="186,132 195,114 139,100" />
<polygon fill="#c0908c" fill-opacity="0.501961" points="141,84 129,70 117,83" />
<polygon fill="#c7d4d9" fill-opacity="0.501961" points="53,161 79,126 137,141" />
<polygon fill="#102b21" fill-opacity="0.501961" points="195,66 178,97 198,79" />
<polygon fill="#e9eef9" fill-opacity="0.501961" points="182,12 223,-11 200,75" />
<polygon fill="#a9bbc4" fill-opacity="0.501961" points="271,141 185,174 243,111" />
<polygon fill="#faffff" fill-opacity="0.501961" points="142,70 156,76 149,78" />
<polygon fill="#4f646d" fill-opacity="0.501961" points="224,185 271,187 237,207" />
<polygon fill="#657e6b" fill-opacity="0.501961" points="115,131 134,116 66,113" />
<polygon fill="#97b0bc" fill-opacity="0.501961" points="81,150 170,169 91,181" />
<polygon fill="#aba2a4" fill-opacity="0.501961" points="106,101 145,137 140,116" />
<polygon fill="#546a58" fill-opacity="0.501961" points="114,66 137,76 96,77" />
<polygon fill="#ccbf95" fill-opacity="0.501961" points="125,95 141,86 148,94" />
<polygon fill="#abc0cb" fill-opacity="0.501961" points="34,168 -6,171 30,138" />
<polygon fill="#466f7c" fill-opacity="0.501961" points="60,168 27,207 46,160" />
<polygon fill="#95a4ae" fill-opacity="0.501961" points="40,42 -16,44 42,58" />
<polygon fill="#6b91af" fill-opacity="0.501961" points="47,30 30,-16 55,18" />
<polygon fill="#6c816e" fill-opacity="0.501961" points="227,95 236,112 235,72" />
<polygon fill="#bcb1a0" fill-opacity="0.501961" points="194,93 177,95 189,99" />
<polygon fill="#526e77" fill-opacity="0.501961" points="44,86 23,43 22,82" />
<polygon fill="#c7c9d0" fill-opacity="0.501961" points="117,104 90,114 100,103" />
<polygon fill="#46602a" fill-opacity="0.501961" points="42,97 16,97 27,103" />
<polygon fill="#83a06c" fill-opacity="0.501961" points="173,83 190,83 187,70" />
<polygon fill="#5f7965" fill-opacity="0.501961" points="61,139 79,125 34,139" />
<polygon fill="#362e48" fill-opacity="0.501961" points="141,86 122,83 118,91" />
<polygon fill="#a2b6c2" fill-opacity="0.501961" points="147,9 179,26 166,-8" />
<polygon fill="#4c6e76" fill-opacity="0.501961" points="171,177 162,207 117,183" />
<polygon fill="#cfd8de" fill-opacity="0.501961" points="119,164 68,135 190,132" />
<polygon fill="#142b2d" fill-opacity="0.501961" points="180,98 197,121 191,102" />
<polygon fill="#ffffff" fill-opacity="0.501961" points="171,57 202,26 151,22" />
<polygon fill="#587a5e" fill-opacity="0.501961" points="103,86 118,84 110,59" />
<polygon fill="#8da2aa" fill-opacity="0.501961" points="113,62 81,56 76,71" />
<polygon fill="#94a5a5" fill-opacity="0.501961" points="62,41 69,58 54,61" />
<polygon fill="#8ca47e" fill-opacity="0.501961" points="189,116 175,134 180,110" />
<polygon fill="#19312d" fill-opacity="0.501961" points="210,77 202,80 205,65" />
<polygon fill="#f3ffff" fill-opacity="0.501961" points="151,119 151,114 140,119" />
<polygon fill="#192e2a" fill-opacity="0.501961" points="64,106 42,106 76,126" />
<polygon fill="#97adbe" fill-opacity="0.501961" points="237,36 232,15 271,25" />
<polygon fill="#5d7c5f" fill-opacity="0.501961" points="77,72 92,73 71,90" />
<polygon fill="#7d92a0" fill-opacity="0.501961" points="157,72 139,53 137,71" />
<polygon fill="#beab82" fill-opacity="0.501961" points="91,92 33,90 62,99" />
<polygon fill="#859da6" fill-opacity="0.501961" points="38,164 -4,172 21,190" />
<polygon fill="#b7c6d4" fill-opacity="0.501961" points="109,31 43,-16 65,33" />
</g>
</svg>