<svg xmlns="http://www.w3.org/2000/svg" version="1.1" width="1024" height="768">
<rect x="0" y="0" width="1024" height="768" fill="#98a8a7" />
<g transform="scale(4.000000) translate(0.5 0.5)">
<polygon fill="#354521" fill-opacity="0.501961" points="271,89 -16,149 -13,46" />
<polygon fill="#ffffff" fill-opacity="0.501961" points="248,-15 -16,41 271,70" />
<polygon fill="#f8fdff" fill-opacity="0.501961" points="212,178 41,141 238,125" />
<polygon fill="#1e3b1c" fill-opacity="0.501961" points="171,57 271,97 172,132" />
<polygon fill="#f0f7ff" fill-opacity="0.501961" points="67,62 55,-16 267,52" />
<polygon fill="#000e00" fill-opacity="0.501961" points="58,58 92,89 33,89" />
<polygon fill="#b5a88f" fill-opacity="0.501961" points="50,95 154,66 136,126" />
<polygon fill="#39543c" fill-opacity="0.501961" points="266,126 261,75 149,66" />
<polygon fill="#e6f2ff" fill-opacity="0.501961" points="-16,39 15,-2 55,43" />
<polygon fill="#3d6b7b" fill-opacity="0.501961" points="54,157 71,207 -16,186" />
<polygon fill="#224f5e" fill-opacity="0.501961" points="193,190 124,174 116,207" />
<polygon fill="#062618" fill-opacity="0.501961" points="37,107 93,105 58,133" />
<polygon fill="#ffffff" fill-opacity="0.501961" points="88,46 222,-1 207,53" />
<polygon fill="#c6d8e5" fill-opacity="0.501961" points="5,163 -16,139 89,148" />
<polygon fill="#c5ba6e" fill-opacity="0.501961" points="39,108 -16,89 105,92" />
<polygon fill="#e1e6f0" fill-opacity="0.501961" points="195,128 193,168 65,132" />
<polygon fill="#a2b8d0" fill-opacity="0.501961" points="157,-16 176,20 21,35" />
<polygon fill="#657459" fill-opacity="0.501961" points="111,86 188,135 224,61" />
<polygon fill="#889c9e" fill-opacity="0.501961" points="114,89 50,57 183,61" />
<polygon fill="#ffffff" fill-opacity="0.501961" points="112,21 127,-16 73,7" />
<polygon fill="#afc3cb" fill-opacity="0.501961" points="113,207 64,140 104,97" />
<polygon fill="#bfbd86" fill-opacity="0.501961" points="195,95 160,104 123,91" />
<polygon fill="#a8b9ca" fill-opacity="0.501961" points="194,207 271,109 213,129" />
<polygon fill="#a2b5ce" fill-opacity="0.501961" points="241,77 271,10 219,-16" />
<polygon fill="#648295" fill-opacity="0.501961" points="241,142 212,205 271,193" />
<polygon fill="#5f7862" fill-opacity="0.501961" points="114,133 133,117 68,113" />
<polygon fill="#27493a" fill-opacity="0.501961" points="-5,62 -15,90 98,89" />
<polygon fill="#6c868e" fill-opacity="0.501961" points="67,143 40,122 -16,146" />
<polygon fill="#688483" fill-opacity="0.501961" points="26,111 61,45 18,52" />
<polygon fill="#94b1cc" fill-opacity="0.501961" points="44,-16 100,35 -16,9" />
<polygon fill="#f0faff" fill-opacity="0.501961" points="146,67 159,77 140,75" />
<polygon fill="#3a5144" fill-opacity="0.501961" points="263,59 202,123 271,105" />
<polygon fill="#c5c3b6" fill-opacity="0.501961" points="91,76 99,94 133,94" />
<polygon fill="#67645d" fill-opacity="0.501961" points="107,86 157,91 107,56" />
<polygon fill="#73929f" fill-opacity="0.501961" points="212,196 120,176 177,166" />
<polygon fill="#a1a263" fill-opacity="0.501961" points="25,87 -9,108 97,103" />
<polygon fill="#010f15" fill-opacity="0.501961" points="188,94 168,89 196,80" />
<polygon fill="#688ea5" fill-opacity="0.501961" points="104,158 70,182 20,155" />
<polygon fill="#7896ac" fill-opacity="0.501961" points="122,15 224,-8 124,-16" />
<polygon fill="#72916c" fill-opacity="0.501961" points="214,131 212,112 251,104" />
<polygon fill="#1c1132" fill-opacity="0.501961" points="119,105 137,104 130,111" />
<polygon fill="#ffffff" fill-opacity="0.501961" points="151,114 136,118 154,120" />
<polygon fill="#dce5f0" fill-opacity="0.501961" points="189,46 224,16 200,74" />
<polygon fill="#06231b" fill-opacity="0.501961" points="94,88 32,89 62,72" />
<polygon fill="#3f5c4b" fill-opacity="0.501961" points="-16,110 15,130 49,106" />
<polygon fill="#e4e9f0" fill-opacity="0.501961" points="201,118 150,169 205,153" />
<polygon fill="#d7b2ba" fill-opacity="0.501961" points="128,68 140,74 119,85" />
<polygon fill="#cfd9e0" fill-opacity="0.501961" points="120,165 67,134 174,131" />
<polygon fill="#4c624e" fill-opacity="0.501961" points="184,98 146,105 173,131" />
<polygon fill="#f5f7fd" fill-opacity="0.501961" points="178,62 216,-6 149,61" />
<polygon fill="#e2eaf4" fill-opacity="0.501961" points="30,25 -8,57 -16,10" />
<polygon fill="#7a91a9" fill-opacity="0.501961" points="-3,58 2,42 47,58" />
<polygon fill="#587739" fill-opacity="0.501961" points="19,94 -6,103 45,102" />
<polygon fill="#3b4e41" fill-opacity="0.501961" points="137,77 171,78 168,92" />
<polygon fill="#a9bfcb" fill-opacity="0.501961" points="108,196 71,186 150,146" />
<polygon fill="#0b1929" fill-opacity="0.501961" points="218,89 224,114 226,79" />
<polygon fill="#afa8b1" fill-opacity="0.501961" points="108,101 147,120 141,137" />
<polygon fill="#132d2c" fill-opacity="0.501961" points="191,99 180,99 197,122" />
<polygon fill="#b5c1cd" fill-opacity="0.501961" points="218,161 219,186 136,164" />
<polygon fill="#275239" fill-opacity="0.501961" points="74,64 84,91 48,63" />
<polygon fill="#7ca56c" fill-opacity="0.501961" points="212,78 192,82 221,90" />
<polygon fill="#123627" fill-opacity="0.501961" points="187,83 211,75 191,71" />
<polygon fill="#04012c" fill-opacity="0.501961" points="122,85 138,85 131,90" />
<polygon fill="#142529" fill-opacity="0.501961" points="260,108 255,82 236,89" />
<polygon fill="#d6c59b" fill-opacity="0.501961" points="18,96 36,93 29,84" />
<polygon fill="#8aa07e" fill-opacity="0.501961" points="242,82 245,65 271,68" />
<polygon fill="#b8c7ce" fill-opacity="0.501961" points="261,140 243,111 220,142" />
<polygon fill="#a8bdc8" fill-opacity="0.501961" points="1,170 30,137 38,170" />
<polygon fill="#637d69" fill-opacity="0.501961" points="138,67 187,59 191,85" />
<polygon fill="#d6e3e8" fill-opacity="0.501961" points="81,44 71,44 79,73" />
<polygon fill="#4f646e" fill-opacity="0.501961" points="271,185 227,185 225,207" />
<polygon fill="#667f3f" fill-opacity="0.501961" points="134,104 148,95 104,95" />
<polygon fill="#7195b7" fill-opacity="0.501961" points="39,30 41,-16 55,30" />
<polygon fill="#c4d1d6" fill-opacity="0.501961" points="95,142 62,162 42,143" />
<polygon fill="#bdb889" fill-opacity="0.501961" points="3,83 15,97 -1,91" />
<polygon fill="#527279" fill-opacity="0.501961" points="110,196 173,168 168,200" />
<polygon fill="#a2a68d" fill-opacity="0.501961" points="193,92 188,96 201,114" />
<polygon fill="#476e7b" fill-opacity="0.501961" points="59,166 30,207 43,161" />
<polygon fill="#5e8468" fill-opacity="0.501961" points="111,58 93,91 134,69" />
<polygon fill="#85a082" fill-opacity="0.501961" points="216,58 250,76 211,75" />
<polygon fill="#889e9c" fill-opacity="0.501961" points="69,57 63,44 50,63" />
<polygon fill="#2b4133" fill-opacity="0.501961" points="177,64 178,81 166,72" />
<polygon fill="#ced2cb" fill-opacity="0.501961" points="104,77 90,87 90,77" />
<polygon fill="#c9d4e1" fill-opacity="0.501961" points="230,28 199,52 246,71" />
<polygon fill="#eaedf3" fill-opacity="0.501961" points="205,149 151,125 162,161" />
<polygon fill="#06251f" fill-opacity="0.501961" points="199,86 205,88 198,101" />
<polygon fill="#6f856d" fill-opacity="0.501961" points="242,119 271,125 221,93" />
<polygon fill="#93aab9" fill-opacity="0.501961" points="215,175 271,139 218,143" />
<polygon fill="#617e66" fill-opacity="0.501961" points="122,103 102,113 108,135" />
<polygon fill="#cfc092" fill-opacity="0.501961" points="138,95 144,87 116,94" />
<polygon fill="#fdf8ff" fill-opacity="0.501961" points="149,78 153,76 142,72" />
<polygon fill="#c5c7b6" fill-opacity="0.501961" points="100,103 91,113 123,101" />
<polygon fill="#e8edf7" fill-opacity="0.501961" points="153,53 46,40 162,18" />
<polygon fill="#738981" fill-opacity="0.501961" points="70,130 39,137 62,146" />
<polygon fill="#57765c" fill-opacity="0.501961" points="75,75 95,73 69,90" />
<polygon fill="#9aafbf" fill-opacity="0.501961" points="240,44 232,16 262,20" />
<polygon fill="#9ca47b" fill-opacity="0.501961" points="142,105 130,102 164,84" />
<polygon fill="#668760" fill-opacity="0.501961" points="204,103 192,127 228,93" />
<polygon fill="#a5a56d" fill-opacity="0.501961" points="59,106 72,89 130,102" />
<polygon fill="#090014" fill-opacity="0.501961" points="145,76 135,76 147,81" />
</g>
</svg>