<svg xmlns="http://www.w3.org/2000/svg" version="1.1" width="1024" height="768">
<rect x="0" y="0" width="1024" height="768" fill="#98a8a7" />
<g transform="scale(4.000000) translate(0.5 0.5)">
<polygon fill="#354520" fill-opacity="0.501961" points="-16,47 -4,147 271,88" />
<polygon fill="#ffffff" fill-opacity="0.501961" points="271,70 -16,41 249,-16" />
<polygon fill="#f1f7ff" fill-opacity="0.501961" points="250,123 208,177 19,143" />
<polygon fill="#1e3b1c" fill-opacity="0.501961" points="173,57 170,132 271,99" />
<polygon fill="#f1f8ff" fill-opacity="0.501961" points="68,61 55,-16 264,52" />
<polygon fill="#001308" fill-opacity="0.501961" points="97,89 55,61 32,91" />
<polygon fill="#b8aa8d" fill-opacity="0.501961" points="136,121 154,69 31,95" />
<polygon fill="#38533b" fill-opacity="0.501961" points="150,65 260,123 265,77" />
<polygon fill="#b8cce3" fill-opacity="0.501961" points="-13,48 206,13 8,-16" />
<polygon fill="#3d6b7b" fill-opacity="0.501961" points="-16,186 54,158 73,207" />
<polygon fill="#24515f" fill-opacity="0.501961" points="118,206 209,193 123,174" />
<polygon fill="#002015" fill-opacity="0.501961" points="56,132 39,107 90,105" />
<polygon fill="#fefeff" fill-opacity="0.501961" points="193,61 224,-1 89,46" />
<polygon fill="#b8b467" fill-opacity="0.501961" points="96,94 -16,86 23,109" />
<polygon fill="#eff5fc" fill-opacity="0.501961" points="6,14 -16,37 75,45" />
<polygon fill="#e6ebf2" fill-opacity="0.501961" points="200,167 180,127 69,134" />
<polygon fill="#64745a" fill-opacity="0.501961" points="113,85 184,134 225,60" />
<polygon fill="#8ea0a3" fill-opacity="0.501961" points="184,61 62,57 104,93" />
<polygon fill="#afc3d0" fill-opacity="0.501961" points="79,141 -16,139 6,173" />
<polygon fill="#b0af7e" fill-opacity="0.501961" points="197,94 96,89 142,106" />
<polygon fill="#7a98b0" fill-opacity="0.501961" points="193,2 121,17 123,-16" />
<polygon fill="#03281d" fill-opacity="0.501961" points="40,88 70,64 89,89" />
<polygon fill="#b4c5cc" fill-opacity="0.501961" points="98,159 103,99 51,153" />
<polygon fill="#84a1ba" fill-opacity="0.501961" points="98,28 40,32 22,-11" />
<polygon fill="#7793a3" fill-opacity="0.501961" points="213,116 271,178 226,207" />
<polygon fill="#a2b5cc" fill-opacity="0.501961" points="271,-13 217,-16 244,81" />
<polygon fill="#b1c0ce" fill-opacity="0.501961" points="271,114 188,207 222,124" />
<polygon fill="#fcfbfe" fill-opacity="0.501961" points="65,7 113,16 125,-16" />
<polygon fill="#2a5243" fill-opacity="0.501961" points="46,77 11,91 -16,55" />
<polygon fill="#648295" fill-opacity="0.501961" points="-16,51 63,46 45,74" />
<polygon fill="#f3f6ff" fill-opacity="0.501961" points="151,78 155,71 129,72" />
<polygon fill="#698389" fill-opacity="0.501961" points="39,122 70,144 -16,143" />
<polygon fill="#5f7964" fill-opacity="0.501961" points="63,109 130,119 110,132" />
<polygon fill="#73919e" fill-opacity="0.501961" points="211,194 120,177 175,165" />
<polygon fill="#bdcedb" fill-opacity="0.501961" points="73,207 130,122 111,207" />
<polygon fill="#496748" fill-opacity="0.501961" points="125,73 105,87 108,56" />
<polygon fill="#2e413c" fill-opacity="0.501961" points="267,53 213,112 271,95" />
<polygon fill="#556148" fill-opacity="0.501961" points="147,97 108,95 131,112" />
<polygon fill="#041c1c" fill-opacity="0.501961" points="175,95 192,91 197,67" />
<polygon fill="#6c91a9" fill-opacity="0.501961" points="75,182 26,157 109,154" />
<polygon fill="#faf6ff" fill-opacity="0.501961" points="132,118 156,121 151,115" />
<polygon fill="#4a3b52" fill-opacity="0.501961" points="113,93 138,77 167,79" />
<polygon fill="#4b616d" fill-opacity="0.501961" points="271,185 226,204 225,184" />
<polygon fill="#587558" fill-opacity="0.501961" points="271,107 142,103 174,130" />
<polygon fill="#e9ecf2" fill-opacity="0.501961" points="201,119 204,155 152,165" />
<polygon fill="#e8eefa" fill-opacity="0.501961" points="186,8 228,8 199,74" />
<polygon fill="#5c785f" fill-opacity="0.501961" points="186,58 150,72 188,84" />
<polygon fill="#b9c09d" fill-opacity="0.501961" points="101,114 93,75 119,92" />
<polygon fill="#3d5b47" fill-opacity="0.501961" points="13,130 -16,112 41,106" />
<polygon fill="#d0dae1" fill-opacity="0.501961" points="153,46 122,62 181,62" />
<polygon fill="#cddade" fill-opacity="0.501961" points="-16,147 51,148 8,160" />
<polygon fill="#18312e" fill-opacity="0.501961" points="191,101 181,100 196,125" />
<polygon fill="#d4c099" fill-opacity="0.501961" points="48,95 29,87 11,94" />
<polygon fill="#2b3f2e" fill-opacity="0.501961" points="210,92 162,78 163,93" />
<polygon fill="#061522" fill-opacity="0.501961" points="228,93 221,74 223,113" />
<polygon fill="#33593f" fill-opacity="0.501961" points="68,83 99,90 54,58" />
<polygon fill="#b4c1cb" fill-opacity="0.501961" points="218,190 245,108 179,175" />
<polygon fill="#93adb8" fill-opacity="0.501961" points="164,170 49,186 103,156" />
<polygon fill="#48612c" fill-opacity="0.501961" points="42,99 20,103 13,96" />
<polygon fill="#95c27b" fill-opacity="0.501961" points="213,78 194,81 195,88" />
<polygon fill="#f5f8ff" fill-opacity="0.501961" points="158,77 145,76 146,71" />
<polygon fill="#87a078" fill-opacity="0.501961" points="212,73 266,64 251,81" />
<polygon fill="#dce6ee" fill-opacity="0.501961" points="85,36 78,69 56,21" />
<polygon fill="#607f5c" fill-opacity="0.501961" points="219,128 200,109 219,57" />
<polygon fill="#74867a" fill-opacity="0.501961" points="223,94 234,94 239,119" />
<polygon fill="#c9d5e1" fill-opacity="0.501961" points="195,48 251,45 243,72" />
<polygon fill="#aaab6e" fill-opacity="0.501961" points="130,103 41,105 87,91" />
<polygon fill="#d6dee2" fill-opacity="0.501961" points="80,127 137,157 64,143" />
<polygon fill="#476f7c" fill-opacity="0.501961" points="57,170 45,156 30,207" />
<polygon fill="#b4c4cf" fill-opacity="0.501961" points="138,14 206,-6 174,23" />
<polygon fill="#ab9e90" fill-opacity="0.501961" points="196,90 182,98 194,99" />
<polygon fill="#d49d95" fill-opacity="0.501961" points="117,79 146,85 131,76" />
<polygon fill="#b1a4ad" fill-opacity="0.501961" points="117,109 143,143 137,109" />
<polygon fill="#162d25" fill-opacity="0.501961" points="96,88 53,68 39,90" />
<polygon fill="#c6d4df" fill-opacity="0.501961" points="39,21 10,9 30,55" />
<polygon fill="#38553c" fill-opacity="0.501961" points="67,130 91,106 46,124" />
<polygon fill="#54717d" fill-opacity="0.501961" points="22,83 42,84 23,41" />
<polygon fill="#453653" fill-opacity="0.501961" points="120,104 151,104 130,111" />
<polygon fill="#4a6b73" fill-opacity="0.501961" points="158,207 173,175 120,188" />
<polygon fill="#0a281e" fill-opacity="0.501961" points="211,76 204,68 201,79" />
<polygon fill="#ffffff" fill-opacity="0.501961" points="151,62 155,24 211,30" />
<polygon fill="#7092ae" fill-opacity="0.501961" points="37,-16 43,32 55,19" />
<polygon fill="#526350" fill-opacity="0.501961" points="112,80 95,86 124,85" />
<polygon fill="#738a8b" fill-opacity="0.501961" points="65,60 26,64 33,43" />
<polygon fill="#14252b" fill-opacity="0.501961" points="251,79 246,95 271,127" />
<polygon fill="#5a785f" fill-opacity="0.501961" points="76,72 70,91 96,73" />
<polygon fill="#10091b" fill-opacity="0.501961" points="136,76 145,81 148,76" />
<polygon fill="#879a8d" fill-opacity="0.501961" points="192,128 152,121 173,133" />
<polygon fill="#ddc3c4" fill-opacity="0.501961" points="106,87 84,93 125,93" />
<polygon fill="#b3c3d1" fill-opacity="0.501961" points="60,32 112,33 49,-15" />
<polygon fill="#849ba4" fill-opacity="0.501961" points="35,166 -7,171 23,192" />
<polygon fill="#e7ebf1" fill-opacity="0.501961" points="149,159 179,128 204,150" />
<polygon fill="#697d68" fill-opacity="0.501961" points="108,134 104,112 132,118" />
<polygon fill="#cab69e" fill-opacity="0.501961" points="138,95 148,83 126,94" />
<polygon fill="#bfc5bd" fill-opacity="0.501961" points="90,88 89,77 102,78" />
<polygon fill="#b2c5bc" fill-opacity="0.501961" points="213,62 199,56 215,76" />
<polygon fill="#98aebf" fill-opacity="0.501961" points="232,16 269,22 238,39" />
<polygon fill="#2e4637" fill-opacity="0.501961" points="162,75 176,63 179,78" />
<polygon fill="#8a9d97" fill-opacity="0.501961" points="79,117 120,127 74,131" />
<polygon fill="#576f73" fill-opacity="0.501961" points="43,107 22,148 23,110" />
</g>
</svg>