<svg xmlns="http://www.w3.org/2000/svg" version="1.1" width="1024" height="768">
<rect x="0" y="0" width="1024" height="768" fill="#98a8a7" />
<g transform="scale(4.000000) translate(0.5 0.5)">
<polygon fill="#354622" fill-opacity="0.501961" points="-16,45 271,89 5,145" />
<polygon fill="#ffffff" fill-opacity="0.501961" points="250,-16 -16,41 267,70" />
<polygon fill="#f4f9ff" fill-opacity="0.501961" points="25,143 242,123 212,177" />
<polygon fill="#213d1e" fill-opacity="0.501961" points="271,98 168,133 172,56" />
<polygon fill="#f0f7ff" fill-opacity="0.501961" points="271,53 69,62 57,-16" />
<polygon fill="#000600" fill-opacity="0.501961" points="93,89 35,89 58,60" />
<polygon fill="#b5a78b" fill-opacity="0.501961" points="140,122 33,97 155,68" />
<polygon fill="#263f2b" fill-opacity="0.501961" points="259,76 270,135 203,71" />
<polygon fill="#e8f4ff" fill-opacity="0.501961" points="-16,36 18,-1 53,44" />
<polygon fill="#3e6b7b" fill-opacity="0.501961" points="53,157 74,207 -16,187" />
<polygon fill="#285563" fill-opacity="0.501961" points="196,189 129,174 106,207" />
<polygon fill="#022317" fill-opacity="0.501961" points="57,133 92,106 37,107" />
<polygon fill="#ffffff" fill-opacity="0.501961" points="180,63 89,41 223,4" />
<polygon fill="#e3e9f1" fill-opacity="0.501961" points="62,135 170,126 210,168" />
<polygon fill="#a5bad2" fill-opacity="0.501961" points="17,36 153,-16 191,18" />
<polygon fill="#b5b263" fill-opacity="0.501961" points="97,96 -16,86 25,109" />
<polygon fill="#89999d" fill-opacity="0.501961" points="67,56 182,64 103,94" />
<polygon fill="#63765a" fill-opacity="0.501961" points="220,57 222,129 119,108" />
<polygon fill="#b5c7d3" fill-opacity="0.501961" points="97,139 -10,142 2,170" />
<polygon fill="#ffffff" fill-opacity="0.501961" points="112,21 75,6 125,-16" />
<polygon fill="#a2b6b6" fill-opacity="0.501961" points="104,126 105,99 53,144" />
<polygon fill="#425448" fill-opacity="0.501961" points="179,64 120,87 260,102" />
<polygon fill="#a1b4cc" fill-opacity="0.501961" points="271,9 220,-16 243,81" />
<polygon fill="#baba81" fill-opacity="0.501961" points="122,91 153,104 195,95" />
<polygon fill="#adbcce" fill-opacity="0.501961" points="175,172 271,106 211,188" />
<polygon fill="#f8fdff" fill-opacity="0.501961" points="162,77 139,76 142,69" />
<polygon fill="#648396" fill-opacity="0.501961" points="214,203 271,185 240,142" />
<polygon fill="#2b5142" fill-opacity="0.501961" points="10,92 -6,60 49,76" />
<polygon fill="#678186" fill-opacity="0.501961" points="-16,146 64,142 38,116" />
<polygon fill="#8098ab" fill-opacity="0.501961" points="35,43 87,64 -16,53" />
<polygon fill="#0e3224" fill-opacity="0.501961" points="70,68 31,90 97,90" />
<polygon fill="#7695aa" fill-opacity="0.501961" points="124,-13 122,15 224,-8" />
<polygon fill="#96b2ce" fill-opacity="0.501961" points="42,-16 98,34 -16,11" />
<polygon fill="#b6cbd8" fill-opacity="0.501961" points="127,148 77,184 108,207" />
<polygon fill="#557359" fill-opacity="0.501961" points="107,135 128,122 107,107" />
<polygon fill="#0c2125" fill-opacity="0.501961" points="222,74 220,115 231,100" />
<polygon fill="#eef2fc" fill-opacity="0.501961" points="201,74 226,-16 173,20" />
<polygon fill="#f5f5ff" fill-opacity="0.501961" points="154,113 148,121 132,119" />
<polygon fill="#76939f" fill-opacity="0.501961" points="174,165 206,193 120,177" />
<polygon fill="#527155" fill-opacity="0.501961" points="106,56 128,69 108,91" />
<polygon fill="#f6dfc5" fill-opacity="0.501961" points="109,86 118,93 86,95" />
<polygon fill="#5c7256" fill-opacity="0.501961" points="124,94 192,111 187,133" />
<polygon fill="#415d4e" fill-opacity="0.501961" points="-12,144 -5,109 53,106" />
<polygon fill="#eaedf4" fill-opacity="0.501961" points="202,156 153,163 203,118" />
<polygon fill="#5e879d" fill-opacity="0.501961" points="79,180 34,172 94,152" />
<polygon fill="#030c12" fill-opacity="0.501961" points="190,94 168,89 192,83" />
<polygon fill="#374d42" fill-opacity="0.501961" points="253,65 235,116 271,98" />
<polygon fill="#5c7a84" fill-opacity="0.501961" points="16,54 65,45 32,91" />
<polygon fill="#e3ebf7" fill-opacity="0.501961" points="-16,11 29,24 -7,56" />
<polygon fill="#ceb792" fill-opacity="0.501961" points="35,94 32,85 2,93" />
<polygon fill="#7d9c72" fill-opacity="0.501961" points="224,65 195,85 264,74" />
<polygon fill="#a9bbc5" fill-opacity="0.501961" points="188,125 226,165 271,121" />
<polygon fill="#cbd6dc" fill-opacity="0.501961" points="56,155 78,126 152,151" />
<polygon fill="#d0d9c7" fill-opacity="0.501961" points="94,76 89,87 105,81" />
<polygon fill="#7c9673" fill-opacity="0.501961" points="175,58 196,63 182,87" />
<polygon fill="#21412d" fill-opacity="0.501961" points="222,79 181,65 192,79" />
<polygon fill="#000000" fill-opacity="0.501961" points="134,76 142,80 146,78" />
<polygon fill="#152b2f" fill-opacity="0.501961" points="191,102 175,97 198,119" />
<polygon fill="#708142" fill-opacity="0.501961" points="-16,96 -2,110 49,96" />
<polygon fill="#92acbb" fill-opacity="0.501961" points="90,175 79,149 177,173" />
<polygon fill="#59725c" fill-opacity="0.501961" points="214,130 235,70 237,109" />
<polygon fill="#ebedff" fill-opacity="0.501961" points="138,76 149,74 128,71" />
<polygon fill="#dbe5ee" fill-opacity="0.501961" points="79,69 54,28 83,32" />
<polygon fill="#c8d6db" fill-opacity="0.501961" points="-4,145 56,149 2,160" />
<polygon fill="#c9d5e2" fill-opacity="0.501961" points="190,65 223,22 263,56" />
<polygon fill="#51666f" fill-opacity="0.501961" points="265,187 209,207 230,184" />
<polygon fill="#618039" fill-opacity="0.501961" points="118,102 97,95 141,96" />
<polygon fill="#b4b37a" fill-opacity="0.501961" points="120,93 109,107 64,89" />
<polygon fill="#b8c6d1" fill-opacity="0.501961" points="142,51 169,63 124,62" />
<polygon fill="#1f1036" fill-opacity="0.501961" points="137,108 134,103 119,106" />
<polygon fill="#b8a5ae" fill-opacity="0.501961" points="142,137 119,109 135,111" />
<polygon fill="#6e93b4" fill-opacity="0.501961" points="41,-16 54,30 40,30" />
<polygon fill="#566957" fill-opacity="0.501961" points="157,121 180,93 175,132" />
<polygon fill="#3e6069" fill-opacity="0.501961" points="121,181 175,188 132,205" />
<polygon fill="#5d7f68" fill-opacity="0.501961" points="78,72 69,89 100,70" />
<polygon fill="#271b40" fill-opacity="0.501961" points="129,90 143,84 120,85" />
<polygon fill="#9fa779" fill-opacity="0.501961" points="161,85 133,104 158,104" />
<polygon fill="#b7ae9c" fill-opacity="0.501961" points="192,93 182,94 198,103" />
<polygon fill="#48707e" fill-opacity="0.501961" points="56,168 33,207 41,158" />
<polygon fill="#8ca5b3" fill-opacity="0.501961" points="15,186 -11,161 51,155" />
<polygon fill="#c8c9d5" fill-opacity="0.501961" points="116,104 103,103 89,113" />
<polygon fill="#799372" fill-opacity="0.501961" points="233,109 271,133 246,105" />
<polygon fill="#657b72" fill-opacity="0.501961" points="96,115 68,108 92,131" />
<polygon fill="#3a5638" fill-opacity="0.501961" points="20,68 -14,81 20,91" />
<polygon fill="#738c97" fill-opacity="0.501961" points="141,58 121,69 166,73" />
<polygon fill="#0f2921" fill-opacity="0.501961" points="60,73 35,89 97,89" />
<polygon fill="#d99995" fill-opacity="0.501961" points="117,80 129,73 141,83" />
<polygon fill="#fefdff" fill-opacity="0.501961" points="171,51 221,30 143,19" />
<polygon fill="#23573b" fill-opacity="0.501961" points="58,76 50,63 73,64" />
<polygon fill="#486649" fill-opacity="0.501961" points="75,128 76,112 45,138" />
<polygon fill="#b5c4bf" fill-opacity="0.501961" points="187,135 170,133 179,124" />
<polygon fill="#9ab0c0" fill-opacity="0.501961" points="262,22 238,44 231,14" />
<polygon fill="#bea59e" fill-opacity="0.501961" points="142,82 133,91 143,95" />
<polygon fill="#84978d" fill-opacity="0.501961" points="67,132 63,147 53,132" />
<polygon fill="#c6af89" fill-opacity="0.501961" points="43,98 67,91 17,90" />
<polygon fill="#283d35" fill-opacity="0.501961" points="68,105 94,106 53,116" />
<polygon fill="#d9e4eb" fill-opacity="0.501961" points="36,32 18,32 30,52" />
<polygon fill="#385937" fill-opacity="0.501961" points="165,64 180,72 163,86" />
<polygon fill="#000b15" fill-opacity="0.501961" points="267,81 245,91 267,103" />
<polygon fill="#94bd74" fill-opacity="0.501961" points="210,78 195,81 193,87" />
</g>
</svg>