<svg xmlns="http://www.w3.org/2000/svg" version="1.1" width="1024" height="680">
<rect x="0" y="0" width="1024" height="680" fill="#9b7071" />
<g transform="scale(4.000000) translate(0.5 0.5)">
<polygon fill="#ffffe0" fill-opacity="0.501961" points="-16,62 4,137 94,116" />
<polygon fill="#000535" fill-opacity="0.501961" points="76,54 100,134 133,110" />
<polygon fill="#d62c4a" fill-opacity="0.501961" points="236,157 130,104 230,27" />
<polygon fill="#6ac0e1" fill-opacity="0.501961" points="110,36 85,69 35,-9" />
<polygon fill="#373e7d" fill-opacity="0.501961" points="271,-16 224,15 252,180" />
<polygon fill="#ffffd0" fill-opacity="0.501961" points="5,83 92,119 -16,122" />
<polygon fill="#213a6c" fill-opacity="0.501961" points="118,7 118,79 151,78" />
<polygon fill="#fc8489" fill-opacity="0.501961" points="271,76 199,94 174,158" />
<polygon fill="#f27b5e" fill-opacity="0.501961" points="127,52 173,42 132,-16" />
<polygon fill="#fbb54a" fill-opacity="0.501961" points="-14,136 74,139 31,120" />
</g>
</svg>